# xmcd CD database file
#
# Track frame offsets:
#	150
#	16564
#	29154
#	51726
#	69627
#	74752
#	79595
#	87900
#	116343
#	129848
#	164626
#	182525
#	200526
#	210217
#	221844
#	251711
#	268477
#	303482
#	326452
#
# Disc length: 4469 seconds
#
# Revision: 2
# Processed by: cddbd v1.5.1PL2 Copyright (c) Steve Scherf et al.
# Submitted via: CDex 1.51
#
DISCID=1e117313
DTITLE=UjPatria - 07MaramarosiNepzeneJodLeud
DYEAR=1999
DGENRE=Hungarian Folk
TTITLE0=JonasMihaiInvartita-Ja
TTITLE1=DePetrecere(AsztaliNota)EsAmikorAtoltozikAMenyasszony
TTITLE2=Kovar-VidekiTancokDeAraduitInvartitaArdeleanaTropotita
TTITLE3=DePetrecere(CiganyRomanAsztaliNota)
TTITLE4=Jocu-NSus(Kovar-videkiLegenyes)
TTITLE5=HoreAMortului(CiganyVirrasztoEnekek)
TTITLE6=Invartita(DraguMi-IVaraLaLucru...)
TTITLE7=DeBautSiDeCingerit(CiganyAsztaliNotaEsCsingerdi)
TTITLE8=PinteaBalladaja
TTITLE9=Hore(RomanMulatoEnekek)
TTITLE10=CiganyKeservesek
TTITLE11=DeUlitaDeStrigat(Marsok)
TTITLE12=HalottMellettiVersEsHoreAGodornel
TTITLE13=CiganyEsMagyarKaracsonyiEnek
TTITLE14=AvasiTanc
TTITLE15=CiganyAsztaliNotak
TTITLE16=Batrinescu
TTITLE17=Invartita
TTITLE18=HosszumezeiMagyarCsardas
EXTD=YEAR: 1999
EXTT0=
EXTT1=
EXTT2=
EXTT3=
EXTT4=
EXTT5=
EXTT6=
EXTT7=
EXTT8=
EXTT9=
EXTT10=
EXTT11=
EXTT12=
EXTT13=
EXTT14=
EXTT15=
EXTT16=
EXTT17=
EXTT18=
PLAYORDER=
